<svg xmlns="http://www.w3.org/2000/svg" viewBox="0 0 96 96">
  <defs>
    <radialGradient id="petal" cx="50%" cy="50%" r="60%">
      <stop offset="0%" stop-color="#ffe785"/>
      <stop offset="100%" stop-color="#f6b429"/>
    </radialGradient>
    <radialGradient id="face" cx="40%" cy="35%" r="60%">
      <stop offset="0%" stop-color="#f5c27c"/>
      <stop offset="100%" stop-color="#b36d2f"/>
    </radialGradient>
  </defs>
  <g transform="translate(48 42)">
    <g fill="url(#petal)">
      <ellipse rx="8" ry="20" transform="rotate(0) translate(0 -21)"/>
      <ellipse rx="8" ry="20" transform="rotate(30) translate(0 -21)"/>
      <ellipse rx="8" ry="20" transform="rotate(60) translate(0 -21)"/>
      <ellipse rx="8" ry="20" transform="rotate(90) translate(0 -21)"/>
      <ellipse rx="8" ry="20" transform="rotate(120) translate(0 -21)"/>
      <ellipse rx="8" ry="20" transform="rotate(150) translate(0 -21)"/>
      <ellipse rx="8" ry="20" transform="rotate(180) translate(0 -21)"/>
      <ellipse rx="8" ry="20" transform="rotate(210) translate(0 -21)"/>
      <ellipse rx="8" ry="20" transform="rotate(240) translate(0 -21)"/>
      <ellipse rx="8" ry="20" transform="rotate(270) translate(0 -21)"/>
      <ellipse rx="8" ry="20" transform="rotate(300) translate(0 -21)"/>
      <ellipse rx="8" ry="20" transform="rotate(330) translate(0 -21)"/>
    </g>
    <circle r="20" fill="url(#face)" stroke="#7d4319" stroke-width="2"/>
    <circle cx="-7" cy="-4" r="2.8" fill="#2f2016"/>
    <circle cx="7" cy="-4" r="2.8" fill="#2f2016"/>
    <path d="M-8 8c2.5 3 13.5 3 16 0" fill="none" stroke="#2f2016" stroke-width="2.5" stroke-linecap="round"/>
  </g>
  <rect x="44" y="59" width="8" height="28" rx="4" fill="#3f9442"/>
  <ellipse cx="34" cy="70" rx="11" ry="7" fill="#5dbf54"/>
  <ellipse cx="62" cy="74" rx="10" ry="7" fill="#5dbf54"/>
</svg>
